<?xml version="1.0" encoding="utf-8"?><!-- Uploaded to: SVG Repo, www.svgrepo.com, Generator: SVG Repo Mixer Tools -->
<svg fill="#000000" width="800px" height="800px" viewBox="0 0 24 24" id="pendulum-6" data-name="Flat Color" xmlns="http://www.w3.org/2000/svg" class="icon flat-color"><path id="primary" d="M9,18a1,1,0,0,1-1-1V3a1,1,0,0,1,2,0V17A1,1,0,0,1,9,18Zm7.7,0a1,1,0,0,0,.65-1.25L13,2.7a1,1,0,1,0-1.9.6l4.4,14.09a1,1,0,0,0,.95.7A.79.79,0,0,0,16.7,18Z" style="fill: rgb(0, 0, 0);"></path><path id="secondary" d="M12,19a3,3,0,1,1-3-3A3,3,0,0,1,12,19Zm5-3a3,3,0,1,0,3,3A3,3,0,0,0,17,16ZM20,3a1,1,0,0,0-1-1H5A1,1,0,0,0,5,4H19A1,1,0,0,0,20,3Z" style="fill: rgb(44, 169, 188);"></path></svg>